<?xml version="1.0" encoding="UTF-8" standalone="no"?>
<svg
   xmlns:dc="http://purl.org/dc/elements/1.1/"
   xmlns:cc="http://creativecommons.org/ns#"
   xmlns:rdf="http://www.w3.org/1999/02/22-rdf-syntax-ns#"
   xmlns:svg="http://www.w3.org/2000/svg"
   xmlns="http://www.w3.org/2000/svg"
   xmlns:sodipodi="http://sodipodi.sourceforge.net/DTD/sodipodi-0.dtd"
   xmlns:inkscape="http://www.inkscape.org/namespaces/inkscape"
   id="Layer_1"
   data-name="Layer 1"
   viewBox="0 0 107.64158 116.37731"
   version="1.1"
   sodipodi:docname="logo.svg"
   width="107.64159"
   height="116.37731"
   inkscape:version="0.92.2 (5c3e80d, 2017-08-06)">
  <metadata
     id="metadata108">
    <rdf:RDF>
      <cc:Work
         rdf:about="">
        <dc:format>image/svg+xml</dc:format>
        <dc:type
           rdf:resource="http://purl.org/dc/dcmitype/StillImage" />
        <dc:title>Untitled-4</dc:title>
      </cc:Work>
    </rdf:RDF>
  </metadata>
  <sodipodi:namedview
     pagecolor="#ffffff"
     bordercolor="#666666"
     borderopacity="1"
     objecttolerance="10"
     gridtolerance="10"
     guidetolerance="10"
     inkscape:pageopacity="0"
     inkscape:pageshadow="2"
     inkscape:window-width="812"
     inkscape:window-height="835"
     id="namedview106"
     showgrid="false"
     fit-margin-top="5"
     fit-margin-left="5"
     fit-margin-right="5"
     fit-margin-bottom="5"
     inkscape:zoom="2.1754513"
     inkscape:cx="8.4315848"
     inkscape:cy="47.57518"
     inkscape:window-x="-14"
     inkscape:window-y="0"
     inkscape:window-maximized="0"
     inkscape:current-layer="Layer_1" />
  <defs
     id="defs62">
    <style id="al_style">
      .crane{fill:#e98c24;}
      .accent{fill:#231f20;}
    </style>
  </defs>
  <title
     id="title64">Assemblyline_robot</title>
  <path
     class="crane"
     d="M 95.32,19.237128 A 7.56,7.56 0 0 0 84.58,9.6571281 L 58.13,10.067128 v 0 a 11.87,11.87 0 1 0 -16,16.88 l 2.63,18 -22.83,11.53 a 12,12 0 0 0 -6.57,10.68 v 12.83 h -1.43 a 1.09,1.09 0 0 0 -1.18,0.78 v 2 h 33 v -2 a 1.09,1.09 0 0 0 -1.18,-0.78 h -1.08 l 20.64,-20.74 a 11.11,11.11 0 0 0 0.57,-14.42 l -0.18,-0.21 -6.68,-20.51 q 0.35,-0.46 0.65,-0.95 l 24.54,-1.53 a 7.6,7.6 0 0 0 1.42,1.11 l 1,6.92 11.12,-1.31 z"
     id="path90"
     inkscape:connector-curvature="0" />
  <g
     id="_Group_"
     data-name="&lt;Group&gt;"
     transform="translate(-451.18,4.977128)">
    <path
       class="accent"
       d="M 544.32,323.29 H 528.1 a 0.7,0.7 0 0 0 -0.67,0.61 l -2.6,22.77 a 0.31,0.31 0 0 1 -0.32,0.26 h -3.3 c -0.65,0 -1.14,0.24 -1.14,0.92 v 1.44 a 0.31,0.31 0 0 0 0.32,0.29 h 47.85 a 0.31,0.31 0 0 0 0.32,-0.29 v -1.44 c 0,-0.69 -0.49,-0.92 -1.14,-0.92 h -3.3 a 0.31,0.31 0 0 1 -0.32,-0.26 l -2.6,-22.77 a 0.7,0.7 0 0 0 -0.67,-0.61 z"
       transform="translate(-63.89,-243.18)"
       id="path96"
       inkscape:connector-curvature="0" />
  </g>
  <circle
     class="accent"
     cx="29.881834"
     cy="41.630302"
     r="5.2800002"
     transform="rotate(-35.14)"
     id="circle99"/>
  <circle
     class="accent"
     cx="-43.529358"
     cy="62.22863"
     r="6.3600001"
     transform="rotate(-82.41)"
     id="circle101" />
  <circle
     class="accent"
     cx="81.327148"
     cy="38.20327"
     r="3.1300001"
     transform="rotate(-14.77)"
     id="circle103" />
  <g
     id="g132"
     transform="translate(-451.18,4.977128)">
    <g
       id="g126">
      <path
         class="accent"
         d="m 617.14,271.1 a 0.18,0.18 0 0 0 -0.09,-0.14 l -0.72,-0.44 a 0.18,0.18 0 0 0 -0.12,0 l -2.66,0.31 a 0.2,0.2 0 0 0 0.1,-0.18 l -0.26,-2.18 a 0.18,0.18 0 0 0 -0.2,-0.16 l -13.47,1.59 a 0.18,0.18 0 0 0 -0.16,0.2 l 0.26,2.18 a 0.18,0.18 0 0 0 0.16,0.15 l -2.68,0.32 a 0.18,0.18 0 0 0 -0.11,0.05 l -0.6,0.6 a 0.18,0.18 0 0 0 -0.05,0.15 l 0.57,4.78 a 0.18,0.18 0 0 0 0.09,0.14 l 0.73,0.44 a 0.18,0.18 0 0 0 0.12,0 l 1.36,-0.16 a 0.17,0.17 0 0 0 -0.08,0.16 l 1,8.06 a 4.19,4.19 0 0 0 0.62,1.75 l 4.53,7.15 a 0.52,0.52 0 0 0 0.5,0.24 l 1.5,-0.18 a 0.18,0.18 0 0 0 0.16,-0.2 l -0.71,-6 a 0.18,0.18 0 0 0 -0.2,-0.16 l -0.55,0.07 a 0.18,0.18 0 0 1 -0.2,-0.16 L 604.6,278.3 a 0.17,0.17 0 0 0 -0.11,-0.14 l 12.46,-1.47 a 0.18,0.18 0 0 0 0.11,-0.05 l 0.6,-0.6 a 0.18,0.18 0 0 0 0.05,-0.15 z"
         transform="translate(-63.89,-243.18)"
         id="path92"
         inkscape:connector-curvature="0" />
    </g>
    <path
       style="fill:#231f20"
       id="path92-3"
       d="m 532.65361,30.298873 a 0.18,0.18 0 0 1 0.0554,-0.156935 l 0.59962,-0.593677 a 0.18,0.18 0 0 1 0.11679,-0.02758 l 2.66005,-0.309549 a 0.2,0.2 0 0 1 -0.13869,-0.152204 l -0.24791,-2.181408 a 0.18,0.18 0 0 1 0.15788,-0.201677 l 13.47491,-1.547885 a 0.18,0.18 0 0 1 0.20168,0.157881 l 0.24791,2.181408 A 0.18,0.18 0 0 1 549.66,27.65 l 2.68181,-0.304414 a 0.18,0.18 0 0 1 0.11855,0.02339 l 0.72182,0.446066 a 0.18,0.18 0 0 1 0.0831,0.134496 l 0.54367,4.783066 a 0.18,0.18 0 0 1 -0.0554,0.156935 l -0.60935,0.595976 a 0.18,0.18 0 0 1 -0.11679,0.02757 l -1.36037,0.156803 a 0.17,0.17 0 0 1 0.11462,0.137334 l 0.87891,8.074102 a 4.19,4.19 0 0 1 -0.20127,1.845642 l -2.76574,7.999625 a 0.52,0.52 0 0 1 -0.43147,0.34848 l -1.50122,0.16951 a 0.18,0.18 0 0 1 -0.20168,-0.15788 l -0.68777,-6.002591 a 0.18,0.18 0 0 1 0.15789,-0.201678 l 0.55136,-0.05826 a 0.18,0.18 0 0 0 0.15788,-0.201677 l -1.22603,-11.19793 a 0.17,0.17 0 0 1 0.0749,-0.161531 l -12.46435,1.432581 a 0.18,0.18 0 0 1 -0.11855,-0.02339 l -0.72182,-0.446066 a 0.18,0.18 0 0 1 -0.0831,-0.134496 z"
       class="accent"
       inkscape:connector-curvature="0" />
  </g>
</svg>
